<svg xmlns="http://www.w3.org/2000/svg" viewBox="0 0 1000 620" fill="none" stroke-width="1.2"><title>Synthetic aligned visualization</title><path d="M50.7,398.0L64.8,398.0L78.8,398.0L92.8,398.0L106.9,398.0L120.9,398.0L135.0,398.0L149.0,398.0L163.0,398.0L177.1,398.0L191.1,398.0L205.2,398.0L219.2,398.0L233.2,398.0L247.3,398.0L261.3,398.0L275.4,398.0L289.4,398.0L303.4,398.0L317.5,398.0L331.5,398.0L345.6,398.0L359.6,398.0L373.6,398.0L387.7,398.0L401.7,398.0L415.8,398.0L429.8,398.0L443.8,398.0L457.9,398.0L471.9,398.0L486.0,398.0L500.0,398.0L514.0,398.0L528.1,398.0L542.1,398.0L556.2,398.0L570.2,398.0L584.2,398.0L598.3,398.0L612.3,398.0L626.4,398.0L640.4,398.0L654.4,398.0L668.5,398.0L682.5,398.0L696.6,398.0L710.6,398.0L724.6,398.0L738.7,398.0L752.7,398.0L766.8,398.0L780.8,398.0L794.8,398.0L808.9,398.0L822.9,398.0L837.0,398.0L851.0,398.0L865.0,398.0L879.1,398.0L893.1,398.0L907.2,398.0L921.2,398.0L935.2,398.0L949.3,398.0" stroke="#c28b68" opacity="0.8"/><path d="M50.7,397.6L64.8,397.6L78.8,397.6L92.8,397.6L106.9,397.6L120.9,397.6L135.0,397.6L149.0,397.6L163.0,397.6L177.1,397.6L191.1,397.6L205.2,397.6L219.2,397.6L233.2,397.6L247.3,397.6L261.3,397.6L275.4,397.6L289.4,397.6L303.4,397.6L317.5,397.6L331.5,397.6L345.6,397.6L359.6,397.6L373.6,397.6L387.7,397.6L401.7,397.6L415.8,397.6L429.8,397.6L443.8,397.6L457.9,397.6L471.9,397.6L486.0,397.6L500.0,397.6L514.0,397.6L528.1,397.6L542.1,397.6L556.2,397.6L570.2,397.6L584.2,397.6L598.3,397.6L612.3,397.6L626.4,397.6L640.4,397.6L654.4,397.6L668.5,397.6L682.5,397.6L696.6,397.6L710.6,397.6L724.6,397.6L738.7,397.6L752.7,397.6L766.8,397.6L780.8,397.6L794.8,397.6L808.9,397.6L822.9,397.6L837.0,397.6L851.0,397.6L865.0,397.6L879.1,397.6L893.1,397.6L907.2,397.6L921.2,397.6L935.2,397.6L949.3,397.6" stroke="#808f93" opacity="0.55"/><path d="M50.7,397.1L64.8,397.1L78.8,397.1L92.8,397.1L106.9,397.1L120.9,397.1L135.0,397.1L149.0,397.1L163.0,397.1L177.1,397.1L191.1,397.1L205.2,397.1L219.2,397.1L233.2,397.1L247.3,397.1L261.3,397.1L275.4,397.1L289.4,397.1L303.4,397.1L317.5,397.1L331.5,397.1L345.6,397.1L359.6,397.1L373.6,397.1L387.7,397.1L401.7,397.1L415.8,397.1L429.8,397.1L443.8,397.1L457.9,397.1L471.9,397.1L486.0,397.1L500.0,397.1L514.0,397.1L528.1,397.1L542.1,397.1L556.2,397.1L570.2,397.1L584.2,397.1L598.3,397.1L612.3,397.1L626.4,397.1L640.4,397.1L654.4,397.1L668.5,397.1L682.5,397.1L696.6,397.1L710.6,397.1L724.6,397.1L738.7,397.1L752.7,397.1L766.8,397.1L780.8,397.1L794.8,397.1L808.9,397.1L822.9,397.1L837.0,397.1L851.0,397.1L865.0,397.1L879.1,397.1L893.1,397.1L907.2,397.1L921.2,397.1L935.2,397.1L949.3,397.1" stroke="#808f93" opacity="0.55"/><path d="M50.7,396.7L64.8,396.7L78.8,396.7L92.8,396.7L106.9,396.7L120.9,396.7L135.0,396.7L149.0,396.7L163.0,396.7L177.1,396.7L191.1,396.7L205.2,396.7L219.2,396.7L233.2,396.7L247.3,396.7L261.3,396.7L275.4,396.7L289.4,396.7L303.4,396.7L317.5,396.7L331.5,396.7L345.6,396.7L359.6,396.7L373.6,396.7L387.7,396.7L401.7,396.7L415.8,396.7L429.8,396.7L443.8,396.7L457.9,396.7L471.9,396.7L486.0,396.7L500.0,396.7L514.0,396.7L528.1,396.7L542.1,396.7L556.2,396.7L570.2,396.7L584.2,396.7L598.3,396.7L612.3,396.7L626.4,396.7L640.4,396.7L654.4,396.7L668.5,396.7L682.5,396.7L696.6,396.7L710.6,396.7L724.6,396.7L738.7,396.7L752.7,396.7L766.8,396.7L780.8,396.7L794.8,396.7L808.9,396.7L822.9,396.7L837.0,396.7L851.0,396.7L865.0,396.7L879.1,396.7L893.1,396.7L907.2,396.7L921.2,396.7L935.2,396.7L949.3,396.7" stroke="#808f93" opacity="0.55"/><path d="M50.7,396.2L64.8,396.2L78.8,396.2L92.8,396.2L106.9,396.2L120.9,396.2L135.0,396.2L149.0,396.2L163.0,396.2L177.1,396.2L191.1,396.2L205.2,396.2L219.2,396.2L233.2,396.2L247.3,396.2L261.3,396.2L275.4,396.2L289.4,396.2L303.4,396.2L317.5,396.2L331.5,396.2L345.6,396.2L359.6,396.2L373.6,396.2L387.7,396.2L401.7,396.2L415.8,396.2L429.8,396.2L443.8,396.2L457.9,396.2L471.9,396.2L486.0,396.2L500.0,396.2L514.0,396.2L528.1,396.2L542.1,396.2L556.2,396.2L570.2,396.2L584.2,396.2L598.3,396.2L612.3,396.2L626.4,396.2L640.4,396.2L654.4,396.2L668.5,396.2L682.5,396.2L696.6,396.2L710.6,396.2L724.6,396.2L738.7,396.2L752.7,396.2L766.8,396.2L780.8,396.2L794.8,396.2L808.9,396.2L822.9,396.2L837.0,396.2L851.0,396.2L865.0,396.2L879.1,396.2L893.1,396.2L907.2,396.2L921.2,396.2L935.2,396.2L949.3,396.2" stroke="#808f93" opacity="0.55"/><path d="M50.7,395.8L64.8,395.8L78.8,395.8L92.8,395.8L106.9,395.8L120.9,395.8L135.0,395.8L149.0,395.8L163.0,395.8L177.1,395.8L191.1,395.8L205.2,395.8L219.2,395.8L233.2,395.8L247.3,395.8L261.3,395.8L275.4,395.8L289.4,395.8L303.4,395.8L317.5,395.8L331.5,395.8L345.6,395.8L359.6,395.8L373.6,395.8L387.7,395.8L401.7,395.8L415.8,395.8L429.8,395.8L443.8,395.8L457.9,395.8L471.9,395.8L486.0,395.8L500.0,395.8L514.0,395.8L528.1,395.8L542.1,395.8L556.2,395.8L570.2,395.8L584.2,395.8L598.3,395.8L612.3,395.8L626.4,395.8L640.4,395.8L654.4,395.8L668.5,395.8L682.5,395.8L696.6,395.8L710.6,395.8L724.6,395.8L738.7,395.8L752.7,395.8L766.8,395.8L780.8,395.8L794.8,395.8L808.9,395.8L822.9,395.8L837.0,395.8L851.0,395.8L865.0,395.8L879.1,395.8L893.1,395.8L907.2,395.8L921.2,395.8L935.2,395.8L949.3,395.8" stroke="#808f93" opacity="0.55"/><path d="M50.7,395.4L64.8,395.4L78.8,395.4L92.8,395.4L106.9,395.4L120.9,395.4L135.0,395.4L149.0,395.4L163.0,395.4L177.1,395.4L191.1,395.4L205.2,395.4L219.2,395.4L233.2,395.4L247.3,395.4L261.3,395.4L275.4,395.4L289.4,395.4L303.4,395.4L317.5,395.4L331.5,395.4L345.6,395.4L359.6,395.4L373.6,395.4L387.7,395.4L401.7,395.4L415.8,395.4L429.8,395.4L443.8,395.4L457.9,395.4L471.9,395.4L486.0,395.4L500.0,395.4L514.0,395.4L528.1,395.4L542.1,395.4L556.2,395.4L570.2,395.4L584.2,395.4L598.3,395.4L612.3,395.4L626.4,395.4L640.4,395.4L654.4,395.4L668.5,395.4L682.5,395.4L696.6,395.4L710.6,395.4L724.6,395.4L738.7,395.4L752.7,395.4L766.8,395.4L780.8,395.4L794.8,395.4L808.9,395.4L822.9,395.4L837.0,395.4L851.0,395.4L865.0,395.4L879.1,395.4L893.1,395.4L907.2,395.4L921.2,395.4L935.2,395.4L949.3,395.4" stroke="#808f93" opacity="0.55"/><path d="M50.7,394.9L64.8,394.9L78.8,394.9L92.8,394.9L106.9,394.9L120.9,394.9L135.0,394.9L149.0,394.9L163.0,394.9L177.1,394.9L191.1,394.9L205.2,394.9L219.2,394.9L233.2,394.9L247.3,394.9L261.3,394.9L275.4,394.9L289.4,394.9L303.4,394.9L317.5,394.9L331.5,394.9L345.6,394.9L359.6,394.9L373.6,394.9L387.7,394.9L401.7,394.9L415.8,394.9L429.8,394.9L443.8,394.9L457.9,394.9L471.9,394.9L486.0,394.9L500.0,394.9L514.0,394.9L528.1,394.9L542.1,394.9L556.2,394.9L570.2,394.9L584.2,394.9L598.3,394.9L612.3,394.9L626.4,394.9L640.4,394.9L654.4,394.9L668.5,394.9L682.5,394.9L696.6,394.9L710.6,394.9L724.6,394.9L738.7,394.9L752.7,394.9L766.8,394.9L780.8,394.9L794.8,394.9L808.9,394.9L822.9,394.9L837.0,394.9L851.0,394.9L865.0,394.9L879.1,394.9L893.1,394.9L907.2,394.9L921.2,394.9L935.2,394.9L949.3,394.9" stroke="#808f93" opacity="0.55"/><path d="M50.7,394.5L64.8,394.5L78.8,394.5L92.8,394.5L106.9,394.5L120.9,394.5L135.0,394.5L149.0,394.5L163.0,394.5L177.1,394.5L191.1,394.5L205.2,394.5L219.2,394.5L233.2,394.5L247.3,394.5L261.3,394.5L275.4,394.5L289.4,394.5L303.4,394.5L317.5,394.5L331.5,394.5L345.6,394.5L359.6,394.5L373.6,394.5L387.7,394.5L401.7,394.5L415.8,394.5L429.8,394.5L443.8,394.5L457.9,394.5L471.9,394.5L486.0,394.5L500.0,394.5L514.0,394.5L528.1,394.5L542.1,394.5L556.2,394.5L570.2,394.5L584.2,394.5L598.3,394.5L612.3,394.5L626.4,394.5L640.4,394.5L654.4,394.5L668.5,394.5L682.5,394.5L696.6,394.5L710.6,394.5L724.6,394.5L738.7,394.5L752.7,394.5L766.8,394.5L780.8,394.5L794.8,394.5L808.9,394.5L822.9,394.5L837.0,394.5L851.0,394.5L865.0,394.5L879.1,394.5L893.1,394.5L907.2,394.5L921.2,394.5L935.2,394.5L949.3,394.5" stroke="#808f93" opacity="0.55"/><path d="M50.7,394.0L64.8,394.0L78.8,394.0L92.8,394.0L106.9,394.0L120.9,394.0L135.0,394.0L149.0,394.0L163.0,394.0L177.1,394.0L191.1,394.0L205.2,394.0L219.2,394.0L233.2,394.0L247.3,394.0L261.3,394.0L275.4,394.0L289.4,394.0L303.4,394.0L317.5,394.0L331.5,394.0L345.6,394.0L359.6,394.0L373.6,394.0L387.7,394.0L401.7,394.0L415.8,394.0L429.8,394.0L443.8,394.0L457.9,394.0L471.9,394.0L486.0,394.0L500.0,394.0L514.0,394.0L528.1,394.0L542.1,394.0L556.2,394.0L570.2,394.0L584.2,394.0L598.3,394.0L612.3,394.0L626.4,394.0L640.4,394.0L654.4,394.0L668.5,394.0L682.5,394.0L696.6,394.0L710.6,394.0L724.6,394.0L738.7,394.0L752.7,394.0L766.8,394.0L780.8,394.0L794.8,394.0L808.9,394.0L822.9,394.0L837.0,394.0L851.0,394.0L865.0,394.0L879.1,394.0L893.1,394.0L907.2,394.0L921.2,394.0L935.2,394.0L949.3,394.0" stroke="#c28b68" opacity="0.8"/><path d="M50.7,393.6L64.8,393.6L78.8,393.6L92.8,393.6L106.9,393.6L120.9,393.6L135.0,393.6L149.0,393.6L163.0,393.6L177.1,393.6L191.1,393.6L205.2,393.6L219.2,393.6L233.2,393.6L247.3,393.6L261.3,393.6L275.4,393.6L289.4,393.6L303.4,393.6L317.5,393.6L331.5,393.6L345.6,393.6L359.6,393.6L373.6,393.6L387.7,393.6L401.7,393.6L415.8,393.6L429.8,393.6L443.8,393.6L457.9,393.6L471.9,393.6L486.0,393.6L500.0,393.6L514.0,393.6L528.1,393.6L542.1,393.6L556.2,393.6L570.2,393.6L584.2,393.6L598.3,393.6L612.3,393.6L626.4,393.6L640.4,393.6L654.4,393.6L668.5,393.6L682.5,393.6L696.6,393.6L710.6,393.6L724.6,393.6L738.7,393.6L752.7,393.6L766.8,393.6L780.8,393.6L794.8,393.6L808.9,393.6L822.9,393.6L837.0,393.6L851.0,393.6L865.0,393.6L879.1,393.6L893.1,393.6L907.2,393.6L921.2,393.6L935.2,393.6L949.3,393.6" stroke="#808f93" opacity="0.55"/><path d="M50.7,393.2L64.8,393.2L78.8,393.2L92.8,393.2L106.9,393.2L120.9,393.2L135.0,393.2L149.0,393.2L163.0,393.2L177.1,393.2L191.1,393.2L205.2,393.2L219.2,393.2L233.2,393.2L247.3,393.2L261.3,393.2L275.4,393.2L289.4,393.2L303.4,393.2L317.5,393.2L331.5,393.2L345.6,393.2L359.6,393.2L373.6,393.2L387.7,393.2L401.7,393.2L415.8,393.2L429.8,393.2L443.8,393.2L457.9,393.2L471.9,393.2L486.0,393.2L500.0,393.2L514.0,393.2L528.1,393.2L542.1,393.2L556.2,393.2L570.2,393.2L584.2,393.2L598.3,393.2L612.3,393.2L626.4,393.2L640.4,393.2L654.4,393.2L668.5,393.2L682.5,393.2L696.6,393.2L710.6,393.2L724.6,393.2L738.7,393.2L752.7,393.2L766.8,393.2L780.8,393.2L794.8,393.2L808.9,393.2L822.9,393.2L837.0,393.2L851.0,393.2L865.0,393.2L879.1,393.2L893.1,393.2L907.2,393.2L921.2,393.2L935.2,393.2L949.3,393.2" stroke="#808f93" opacity="0.55"/><path d="M50.7,392.7L64.8,392.7L78.8,392.7L92.8,392.7L106.9,392.7L120.9,392.7L135.0,392.7L149.0,392.7L163.0,392.7L177.1,392.7L191.1,392.7L205.2,392.7L219.2,392.7L233.2,392.7L247.3,392.7L261.3,392.7L275.4,392.7L289.4,392.7L303.4,392.7L317.5,392.7L331.5,392.7L345.6,392.7L359.6,392.7L373.6,392.7L387.7,392.7L401.7,392.7L415.8,392.7L429.8,392.7L443.8,392.7L457.9,392.7L471.9,392.7L486.0,392.7L500.0,392.7L514.0,392.7L528.1,392.7L542.1,392.7L556.2,392.7L570.2,392.7L584.2,392.7L598.3,392.7L612.3,392.7L626.4,392.7L640.4,392.7L654.4,392.7L668.5,392.7L682.5,392.7L696.6,392.7L710.6,392.7L724.6,392.7L738.7,392.7L752.7,392.7L766.8,392.7L780.8,392.7L794.8,392.7L808.9,392.7L822.9,392.7L837.0,392.7L851.0,392.7L865.0,392.7L879.1,392.7L893.1,392.7L907.2,392.7L921.2,392.7L935.2,392.7L949.3,392.7" stroke="#808f93" opacity="0.55"/><path d="M50.7,392.3L64.8,392.3L78.8,392.3L92.8,392.3L106.9,392.3L120.9,392.3L135.0,392.3L149.0,392.3L163.0,392.3L177.1,392.3L191.1,392.3L205.2,392.3L219.2,392.3L233.2,392.3L247.3,392.3L261.3,392.3L275.4,392.3L289.4,392.3L303.4,392.3L317.5,392.3L331.5,392.3L345.6,392.3L359.6,392.3L373.6,392.3L387.7,392.3L401.7,392.3L415.8,392.3L429.8,392.3L443.8,392.3L457.9,392.3L471.9,392.3L486.0,392.3L500.0,392.3L514.0,392.3L528.1,392.3L542.1,392.3L556.2,392.3L570.2,392.3L584.2,392.3L598.3,392.3L612.3,392.3L626.4,392.3L640.4,392.3L654.4,392.3L668.5,392.3L682.5,392.3L696.6,392.3L710.6,392.3L724.6,392.3L738.7,392.3L752.7,392.3L766.8,392.3L780.8,392.3L794.8,392.3L808.9,392.3L822.9,392.3L837.0,392.3L851.0,392.3L865.0,392.3L879.1,392.3L893.1,392.3L907.2,392.3L921.2,392.3L935.2,392.3L949.3,392.3" stroke="#808f93" opacity="0.55"/><path d="M50.7,391.8L64.8,391.8L78.8,391.8L92.8,391.8L106.9,391.8L120.9,391.8L135.0,391.8L149.0,391.8L163.0,391.8L177.1,391.8L191.1,391.8L205.2,391.8L219.2,391.8L233.2,391.8L247.3,391.8L261.3,391.8L275.4,391.8L289.4,391.8L303.4,391.8L317.5,391.8L331.5,391.8L345.6,391.8L359.6,391.8L373.6,391.8L387.7,391.8L401.7,391.8L415.8,391.8L429.8,391.8L443.8,391.8L457.9,391.8L471.9,391.8L486.0,391.8L500.0,391.8L514.0,391.8L528.1,391.8L542.1,391.8L556.2,391.8L570.2,391.8L584.2,391.8L598.3,391.8L612.3,391.8L626.4,391.8L640.4,391.8L654.4,391.8L668.5,391.8L682.5,391.8L696.6,391.8L710.6,391.8L724.6,391.8L738.7,391.8L752.7,391.8L766.8,391.8L780.8,391.8L794.8,391.8L808.9,391.8L822.9,391.8L837.0,391.8L851.0,391.8L865.0,391.8L879.1,391.8L893.1,391.8L907.2,391.8L921.2,391.8L935.2,391.8L949.3,391.8" stroke="#808f93" opacity="0.55"/><path d="M50.7,391.4L64.8,391.4L78.8,391.4L92.8,391.4L106.9,391.4L120.9,391.4L135.0,391.4L149.0,391.4L163.0,391.4L177.1,391.4L191.1,391.4L205.2,391.4L219.2,391.4L233.2,391.4L247.3,391.4L261.3,391.4L275.4,391.4L289.4,391.4L303.4,391.4L317.5,391.4L331.5,391.4L345.6,391.4L359.6,391.4L373.6,391.4L387.7,391.4L401.7,391.4L415.8,391.4L429.8,391.4L443.8,391.4L457.9,391.4L471.9,391.4L486.0,391.4L500.0,391.4L514.0,391.4L528.1,391.4L542.1,391.4L556.2,391.4L570.2,391.4L584.2,391.4L598.3,391.4L612.3,391.4L626.4,391.4L640.4,391.4L654.4,391.4L668.5,391.4L682.5,391.4L696.6,391.4L710.6,391.4L724.6,391.4L738.7,391.4L752.7,391.4L766.8,391.4L780.8,391.4L794.8,391.4L808.9,391.4L822.9,391.4L837.0,391.4L851.0,391.4L865.0,391.4L879.1,391.4L893.1,391.4L907.2,391.4L921.2,391.4L935.2,391.4L949.3,391.4" stroke="#808f93" opacity="0.55"/><path d="M50.7,222.0L64.8,222.0L78.8,222.0L92.8,222.0L106.9,222.0L120.9,222.0L135.0,222.0L149.0,222.0L163.0,222.0L177.1,222.0L191.1,222.0L205.2,222.0L219.2,222.0L233.2,222.0L247.3,222.0L261.3,222.0L275.4,222.0L289.4,222.0L303.4,222.0L317.5,222.0L331.5,222.0L345.6,222.0L359.6,222.0L373.6,222.0L387.7,222.0L401.7,222.0L415.8,222.0L429.8,222.0L443.8,222.0L457.9,222.0L471.9,222.0L486.0,222.0L500.0,222.0L514.0,222.0L528.1,222.0L542.1,222.0L556.2,222.0L570.2,222.0L584.2,222.0L598.3,222.0L612.3,222.0L626.4,222.0L640.4,222.0L654.4,222.0L668.5,222.0L682.5,222.0L696.6,222.0L710.6,222.0L724.6,222.0L738.7,222.0L752.7,222.0L766.8,222.0L780.8,222.0L794.8,222.0L808.9,222.0L822.9,222.0L837.0,222.0L851.0,222.0L865.0,222.0L879.1,222.0L893.1,222.0L907.2,222.0L921.2,222.0L935.2,222.0L949.3,222.0" stroke="#808f93" opacity="0.55"/><path d="M50.7,221.6L64.8,221.6L78.8,221.6L92.8,221.6L106.9,221.6L120.9,221.6L135.0,221.6L149.0,221.6L163.0,221.6L177.1,221.6L191.1,221.6L205.2,221.6L219.2,221.6L233.2,221.6L247.3,221.6L261.3,221.6L275.4,221.6L289.4,221.6L303.4,221.6L317.5,221.6L331.5,221.6L345.6,221.6L359.6,221.6L373.6,221.6L387.7,221.6L401.7,221.6L415.8,221.6L429.8,221.6L443.8,221.6L457.9,221.6L471.9,221.6L486.0,221.6L500.0,221.6L514.0,221.6L528.1,221.6L542.1,221.6L556.2,221.6L570.2,221.6L584.2,221.6L598.3,221.6L612.3,221.6L626.4,221.6L640.4,221.6L654.4,221.6L668.5,221.6L682.5,221.6L696.6,221.6L710.6,221.6L724.6,221.6L738.7,221.6L752.7,221.6L766.8,221.6L780.8,221.6L794.8,221.6L808.9,221.6L822.9,221.6L837.0,221.6L851.0,221.6L865.0,221.6L879.1,221.6L893.1,221.6L907.2,221.6L921.2,221.6L935.2,221.6L949.3,221.6" stroke="#808f93" opacity="0.55"/><path d="M50.7,221.1L64.8,221.1L78.8,221.1L92.8,221.1L106.9,221.1L120.9,221.1L135.0,221.1L149.0,221.1L163.0,221.1L177.1,221.1L191.1,221.1L205.2,221.1L219.2,221.1L233.2,221.1L247.3,221.1L261.3,221.1L275.4,221.1L289.4,221.1L303.4,221.1L317.5,221.1L331.5,221.1L345.6,221.1L359.6,221.1L373.6,221.1L387.7,221.1L401.7,221.1L415.8,221.1L429.8,221.1L443.8,221.1L457.9,221.1L471.9,221.1L486.0,221.1L500.0,221.1L514.0,221.1L528.1,221.1L542.1,221.1L556.2,221.1L570.2,221.1L584.2,221.1L598.3,221.1L612.3,221.1L626.4,221.1L640.4,221.1L654.4,221.1L668.5,221.1L682.5,221.1L696.6,221.1L710.6,221.1L724.6,221.1L738.7,221.1L752.7,221.1L766.8,221.1L780.8,221.1L794.8,221.1L808.9,221.1L822.9,221.1L837.0,221.1L851.0,221.1L865.0,221.1L879.1,221.1L893.1,221.1L907.2,221.1L921.2,221.1L935.2,221.1L949.3,221.1" stroke="#c28b68" opacity="0.8"/><path d="M50.7,220.7L64.8,220.7L78.8,220.7L92.8,220.7L106.9,220.7L120.9,220.7L135.0,220.7L149.0,220.7L163.0,220.7L177.1,220.7L191.1,220.7L205.2,220.7L219.2,220.7L233.2,220.7L247.3,220.7L261.3,220.7L275.4,220.7L289.4,220.7L303.4,220.7L317.5,220.7L331.5,220.7L345.6,220.7L359.6,220.7L373.6,220.7L387.7,220.7L401.7,220.7L415.8,220.7L429.8,220.7L443.8,220.7L457.9,220.7L471.9,220.7L486.0,220.7L500.0,220.7L514.0,220.7L528.1,220.7L542.1,220.7L556.2,220.7L570.2,220.7L584.2,220.7L598.3,220.7L612.3,220.7L626.4,220.7L640.4,220.7L654.4,220.7L668.5,220.7L682.5,220.7L696.6,220.7L710.6,220.7L724.6,220.7L738.7,220.7L752.7,220.7L766.8,220.7L780.8,220.7L794.8,220.7L808.9,220.7L822.9,220.7L837.0,220.7L851.0,220.7L865.0,220.7L879.1,220.7L893.1,220.7L907.2,220.7L921.2,220.7L935.2,220.7L949.3,220.7" stroke="#808f93" opacity="0.55"/><path d="M50.7,220.2L64.8,220.2L78.8,220.2L92.8,220.2L106.9,220.2L120.9,220.2L135.0,220.2L149.0,220.2L163.0,220.2L177.1,220.2L191.1,220.2L205.2,220.2L219.2,220.2L233.2,220.2L247.3,220.2L261.3,220.2L275.4,220.2L289.4,220.2L303.4,220.2L317.5,220.2L331.5,220.2L345.6,220.2L359.6,220.2L373.6,220.2L387.7,220.2L401.7,220.2L415.8,220.2L429.8,220.2L443.8,220.2L457.9,220.2L471.9,220.2L486.0,220.2L500.0,220.2L514.0,220.2L528.1,220.2L542.1,220.2L556.2,220.2L570.2,220.2L584.2,220.2L598.3,220.2L612.3,220.2L626.4,220.2L640.4,220.2L654.4,220.2L668.5,220.2L682.5,220.2L696.6,220.2L710.6,220.2L724.6,220.2L738.7,220.2L752.7,220.2L766.8,220.2L780.8,220.2L794.8,220.2L808.9,220.2L822.9,220.2L837.0,220.2L851.0,220.2L865.0,220.2L879.1,220.2L893.1,220.2L907.2,220.2L921.2,220.2L935.2,220.2L949.3,220.2" stroke="#808f93" opacity="0.55"/><path d="M50.7,219.8L64.8,219.8L78.8,219.8L92.8,219.8L106.9,219.8L120.9,219.8L135.0,219.8L149.0,219.8L163.0,219.8L177.1,219.8L191.1,219.8L205.2,219.8L219.2,219.8L233.2,219.8L247.3,219.8L261.3,219.8L275.4,219.8L289.4,219.8L303.4,219.8L317.5,219.8L331.5,219.8L345.6,219.8L359.6,219.8L373.6,219.8L387.7,219.8L401.7,219.8L415.8,219.8L429.8,219.8L443.8,219.8L457.9,219.8L471.9,219.8L486.0,219.8L500.0,219.8L514.0,219.8L528.1,219.8L542.1,219.8L556.2,219.8L570.2,219.8L584.2,219.8L598.3,219.8L612.3,219.8L626.4,219.8L640.4,219.8L654.4,219.8L668.5,219.8L682.5,219.8L696.6,219.8L710.6,219.8L724.6,219.8L738.7,219.8L752.7,219.8L766.8,219.8L780.8,219.8L794.8,219.8L808.9,219.8L822.9,219.8L837.0,219.8L851.0,219.8L865.0,219.8L879.1,219.8L893.1,219.8L907.2,219.8L921.2,219.8L935.2,219.8L949.3,219.8" stroke="#808f93" opacity="0.55"/><path d="M50.7,219.4L64.8,219.4L78.8,219.4L92.8,219.4L106.9,219.4L120.9,219.4L135.0,219.4L149.0,219.4L163.0,219.4L177.1,219.4L191.1,219.4L205.2,219.4L219.2,219.4L233.2,219.4L247.3,219.4L261.3,219.4L275.4,219.4L289.4,219.4L303.4,219.4L317.5,219.4L331.5,219.4L345.6,219.4L359.6,219.4L373.6,219.4L387.7,219.4L401.7,219.4L415.8,219.4L429.8,219.4L443.8,219.4L457.9,219.4L471.9,219.4L486.0,219.4L500.0,219.4L514.0,219.4L528.1,219.4L542.1,219.4L556.2,219.4L570.2,219.4L584.2,219.4L598.3,219.4L612.3,219.4L626.4,219.4L640.4,219.4L654.4,219.4L668.5,219.4L682.5,219.4L696.6,219.4L710.6,219.4L724.6,219.4L738.7,219.4L752.7,219.4L766.8,219.4L780.8,219.4L794.8,219.4L808.9,219.4L822.9,219.4L837.0,219.4L851.0,219.4L865.0,219.4L879.1,219.4L893.1,219.4L907.2,219.4L921.2,219.4L935.2,219.4L949.3,219.4" stroke="#808f93" opacity="0.55"/><path d="M50.7,218.9L64.8,218.9L78.8,218.9L92.8,218.9L106.9,218.9L120.9,218.9L135.0,218.9L149.0,218.9L163.0,218.9L177.1,218.9L191.1,218.9L205.2,218.9L219.2,218.9L233.2,218.9L247.3,218.9L261.3,218.9L275.4,218.9L289.4,218.9L303.4,218.9L317.5,218.9L331.5,218.9L345.6,218.9L359.6,218.9L373.6,218.9L387.7,218.9L401.7,218.9L415.8,218.9L429.8,218.9L443.8,218.9L457.9,218.9L471.9,218.9L486.0,218.9L500.0,218.9L514.0,218.9L528.1,218.9L542.1,218.9L556.2,218.9L570.2,218.9L584.2,218.9L598.3,218.9L612.3,218.9L626.4,218.9L640.4,218.9L654.4,218.9L668.5,218.9L682.5,218.9L696.6,218.9L710.6,218.9L724.6,218.9L738.7,218.9L752.7,218.9L766.8,218.9L780.8,218.9L794.8,218.9L808.9,218.9L822.9,218.9L837.0,218.9L851.0,218.9L865.0,218.9L879.1,218.9L893.1,218.9L907.2,218.9L921.2,218.9L935.2,218.9L949.3,218.9" stroke="#808f93" opacity="0.55"/><path d="M50.7,218.5L64.8,218.5L78.8,218.5L92.8,218.5L106.9,218.5L120.9,218.5L135.0,218.5L149.0,218.5L163.0,218.5L177.1,218.5L191.1,218.5L205.2,218.5L219.2,218.5L233.2,218.5L247.3,218.5L261.3,218.5L275.4,218.5L289.4,218.5L303.4,218.5L317.5,218.5L331.5,218.5L345.6,218.5L359.6,218.5L373.6,218.5L387.7,218.5L401.7,218.5L415.8,218.5L429.8,218.5L443.8,218.5L457.9,218.5L471.9,218.5L486.0,218.5L500.0,218.5L514.0,218.5L528.1,218.5L542.1,218.5L556.2,218.5L570.2,218.5L584.2,218.5L598.3,218.5L612.3,218.5L626.4,218.5L640.4,218.5L654.4,218.5L668.5,218.5L682.5,218.5L696.6,218.5L710.6,218.5L724.6,218.5L738.7,218.5L752.7,218.5L766.8,218.5L780.8,218.5L794.8,218.5L808.9,218.5L822.9,218.5L837.0,218.5L851.0,218.5L865.0,218.5L879.1,218.5L893.1,218.5L907.2,218.5L921.2,218.5L935.2,218.5L949.3,218.5" stroke="#808f93" opacity="0.55"/><path d="M50.7,218.0L64.8,218.0L78.8,218.0L92.8,218.0L106.9,218.0L120.9,218.0L135.0,218.0L149.0,218.0L163.0,218.0L177.1,218.0L191.1,218.0L205.2,218.0L219.2,218.0L233.2,218.0L247.3,218.0L261.3,218.0L275.4,218.0L289.4,218.0L303.4,218.0L317.5,218.0L331.5,218.0L345.6,218.0L359.6,218.0L373.6,218.0L387.7,218.0L401.7,218.0L415.8,218.0L429.8,218.0L443.8,218.0L457.9,218.0L471.9,218.0L486.0,218.0L500.0,218.0L514.0,218.0L528.1,218.0L542.1,218.0L556.2,218.0L570.2,218.0L584.2,218.0L598.3,218.0L612.3,218.0L626.4,218.0L640.4,218.0L654.4,218.0L668.5,218.0L682.5,218.0L696.6,218.0L710.6,218.0L724.6,218.0L738.7,218.0L752.7,218.0L766.8,218.0L780.8,218.0L794.8,218.0L808.9,218.0L822.9,218.0L837.0,218.0L851.0,218.0L865.0,218.0L879.1,218.0L893.1,218.0L907.2,218.0L921.2,218.0L935.2,218.0L949.3,218.0" stroke="#808f93" opacity="0.55"/><path d="M50.7,217.6L64.8,217.6L78.8,217.6L92.8,217.6L106.9,217.6L120.9,217.6L135.0,217.6L149.0,217.6L163.0,217.6L177.1,217.6L191.1,217.6L205.2,217.6L219.2,217.6L233.2,217.6L247.3,217.6L261.3,217.6L275.4,217.6L289.4,217.6L303.4,217.6L317.5,217.6L331.5,217.6L345.6,217.6L359.6,217.6L373.6,217.6L387.7,217.6L401.7,217.6L415.8,217.6L429.8,217.6L443.8,217.6L457.9,217.6L471.9,217.6L486.0,217.6L500.0,217.6L514.0,217.6L528.1,217.6L542.1,217.6L556.2,217.6L570.2,217.6L584.2,217.6L598.3,217.6L612.3,217.6L626.4,217.6L640.4,217.6L654.4,217.6L668.5,217.6L682.5,217.6L696.6,217.6L710.6,217.6L724.6,217.6L738.7,217.6L752.7,217.6L766.8,217.6L780.8,217.6L794.8,217.6L808.9,217.6L822.9,217.6L837.0,217.6L851.0,217.6L865.0,217.6L879.1,217.6L893.1,217.6L907.2,217.6L921.2,217.6L935.2,217.6L949.3,217.6" stroke="#808f93" opacity="0.55"/><path d="M50.7,217.2L64.8,217.2L78.8,217.2L92.8,217.2L106.9,217.2L120.9,217.2L135.0,217.2L149.0,217.2L163.0,217.2L177.1,217.2L191.1,217.2L205.2,217.2L219.2,217.2L233.2,217.2L247.3,217.2L261.3,217.2L275.4,217.2L289.4,217.2L303.4,217.2L317.5,217.2L331.5,217.2L345.6,217.2L359.6,217.2L373.6,217.2L387.7,217.2L401.7,217.2L415.8,217.2L429.8,217.2L443.8,217.2L457.9,217.2L471.9,217.2L486.0,217.2L500.0,217.2L514.0,217.2L528.1,217.2L542.1,217.2L556.2,217.2L570.2,217.2L584.2,217.2L598.3,217.2L612.3,217.2L626.4,217.2L640.4,217.2L654.4,217.2L668.5,217.2L682.5,217.2L696.6,217.2L710.6,217.2L724.6,217.2L738.7,217.2L752.7,217.2L766.8,217.2L780.8,217.2L794.8,217.2L808.9,217.2L822.9,217.2L837.0,217.2L851.0,217.2L865.0,217.2L879.1,217.2L893.1,217.2L907.2,217.2L921.2,217.2L935.2,217.2L949.3,217.2" stroke="#c28b68" opacity="0.8"/><path d="M50.7,216.7L64.8,216.7L78.8,216.7L92.8,216.7L106.9,216.7L120.9,216.7L135.0,216.7L149.0,216.7L163.0,216.7L177.1,216.7L191.1,216.7L205.2,216.7L219.2,216.7L233.2,216.7L247.3,216.7L261.3,216.7L275.4,216.7L289.4,216.7L303.4,216.7L317.5,216.7L331.5,216.7L345.6,216.7L359.6,216.7L373.6,216.7L387.7,216.7L401.7,216.7L415.8,216.7L429.8,216.7L443.8,216.7L457.9,216.7L471.9,216.7L486.0,216.7L500.0,216.7L514.0,216.7L528.1,216.7L542.1,216.7L556.2,216.7L570.2,216.7L584.2,216.7L598.3,216.7L612.3,216.7L626.4,216.7L640.4,216.7L654.4,216.7L668.5,216.7L682.5,216.7L696.6,216.7L710.6,216.7L724.6,216.7L738.7,216.7L752.7,216.7L766.8,216.7L780.8,216.7L794.8,216.7L808.9,216.7L822.9,216.7L837.0,216.7L851.0,216.7L865.0,216.7L879.1,216.7L893.1,216.7L907.2,216.7L921.2,216.7L935.2,216.7L949.3,216.7" stroke="#808f93" opacity="0.55"/><path d="M50.7,216.3L64.8,216.3L78.8,216.3L92.8,216.3L106.9,216.3L120.9,216.3L135.0,216.3L149.0,216.3L163.0,216.3L177.1,216.3L191.1,216.3L205.2,216.3L219.2,216.3L233.2,216.3L247.3,216.3L261.3,216.3L275.4,216.3L289.4,216.3L303.4,216.3L317.5,216.3L331.5,216.3L345.6,216.3L359.6,216.3L373.6,216.3L387.7,216.3L401.7,216.3L415.8,216.3L429.8,216.3L443.8,216.3L457.9,216.3L471.9,216.3L486.0,216.3L500.0,216.3L514.0,216.3L528.1,216.3L542.1,216.3L556.2,216.3L570.2,216.3L584.2,216.3L598.3,216.3L612.3,216.3L626.4,216.3L640.4,216.3L654.4,216.3L668.5,216.3L682.5,216.3L696.6,216.3L710.6,216.3L724.6,216.3L738.7,216.3L752.7,216.3L766.8,216.3L780.8,216.3L794.8,216.3L808.9,216.3L822.9,216.3L837.0,216.3L851.0,216.3L865.0,216.3L879.1,216.3L893.1,216.3L907.2,216.3L921.2,216.3L935.2,216.3L949.3,216.3" stroke="#808f93" opacity="0.55"/><path d="M50.7,215.8L64.8,215.8L78.8,215.8L92.8,215.8L106.9,215.8L120.9,215.8L135.0,215.8L149.0,215.8L163.0,215.8L177.1,215.8L191.1,215.8L205.2,215.8L219.2,215.8L233.2,215.8L247.3,215.8L261.3,215.8L275.4,215.8L289.4,215.8L303.4,215.8L317.5,215.8L331.5,215.8L345.6,215.8L359.6,215.8L373.6,215.8L387.7,215.8L401.7,215.8L415.8,215.8L429.8,215.8L443.8,215.8L457.9,215.8L471.9,215.8L486.0,215.8L500.0,215.8L514.0,215.8L528.1,215.8L542.1,215.8L556.2,215.8L570.2,215.8L584.2,215.8L598.3,215.8L612.3,215.8L626.4,215.8L640.4,215.8L654.4,215.8L668.5,215.8L682.5,215.8L696.6,215.8L710.6,215.8L724.6,215.8L738.7,215.8L752.7,215.8L766.8,215.8L780.8,215.8L794.8,215.8L808.9,215.8L822.9,215.8L837.0,215.8L851.0,215.8L865.0,215.8L879.1,215.8L893.1,215.8L907.2,215.8L921.2,215.8L935.2,215.8L949.3,215.8" stroke="#808f93" opacity="0.55"/><path d="M50.7,215.4L64.8,215.4L78.8,215.4L92.8,215.4L106.9,215.4L120.9,215.4L135.0,215.4L149.0,215.4L163.0,215.4L177.1,215.4L191.1,215.4L205.2,215.4L219.2,215.4L233.2,215.4L247.3,215.4L261.3,215.4L275.4,215.4L289.4,215.4L303.4,215.4L317.5,215.4L331.5,215.4L345.6,215.4L359.6,215.4L373.6,215.4L387.7,215.4L401.7,215.4L415.8,215.4L429.8,215.4L443.8,215.4L457.9,215.4L471.9,215.4L486.0,215.4L500.0,215.4L514.0,215.4L528.1,215.4L542.1,215.4L556.2,215.4L570.2,215.4L584.2,215.4L598.3,215.4L612.3,215.4L626.4,215.4L640.4,215.4L654.4,215.4L668.5,215.4L682.5,215.4L696.6,215.4L710.6,215.4L724.6,215.4L738.7,215.4L752.7,215.4L766.8,215.4L780.8,215.4L794.8,215.4L808.9,215.4L822.9,215.4L837.0,215.4L851.0,215.4L865.0,215.4L879.1,215.4L893.1,215.4L907.2,215.4L921.2,215.4L935.2,215.4L949.3,215.4" stroke="#808f93" opacity="0.55"/></svg>