<svg xmlns="http://www.w3.org/2000/svg" viewBox="0 0 1000 620" fill="none" stroke-width="1.2"><title>Synthetic usage visualization</title><path d="M850.2,310.0L850.2,308.5L850.1,306.9L849.9,305.4L849.7,303.9L849.4,302.3L849.0,300.8L848.6,299.4L848.1,297.9L847.5,296.4L846.9,295.0L846.2,293.6L845.5,292.2L844.7,290.9L843.9,289.6L843.0,288.3L842.0,287.1L841.0,285.9L839.9,284.7L838.8,283.6L837.6,282.5L836.4,281.5L835.2,280.5L833.9,279.6L832.5,278.7L831.2,277.9L829.8,277.2L828.3,276.4L826.9,275.8L825.4,275.2L823.9,274.7L822.3,274.2L820.8,273.8L819.2,273.4L817.6,273.1L816.0,272.9L814.4,272.7L812.8,272.6L811.2,272.6L809.6,272.6L808.0,272.7L806.4,272.9L804.8,273.1L803.2,273.4L801.6,273.7L800.0,274.1L798.5,274.6L797.0,275.1L795.5,275.7L794.0,276.3L792.6,277.0L791.2,277.8L789.8,278.6L788.5,279.4L787.2,280.4L785.9,281.3L784.7,282.3L783.5,283.4L782.4,284.5L781.3,285.7L780.3,286.8L779.3,288.1L778.4,289.3L777.5,290.6L776.7,292.0" stroke="#c28b68" opacity="0.8"/><path d="M812.3,230.3L812.3,228.6L812.2,226.9L812.0,225.2L811.7,223.6L811.3,222.0L810.9,220.3L810.4,218.7L809.8,217.1L809.2,215.6L808.5,214.1L807.7,212.6L806.8,211.1L805.9,209.7L804.9,208.3L803.8,207.0L802.7,205.7L801.5,204.5L800.3,203.3L799.0,202.2L797.7,201.1L796.3,200.1L794.8,199.1L793.3,198.2L791.8,197.4L790.3,196.6L788.7,195.9L787.0,195.3L785.4,194.7L783.7,194.2L782.0,193.8L780.3,193.5L778.6,193.2L776.8,193.0L775.1,192.9L773.3,192.9L771.6,192.9L769.8,193.0L768.1,193.2L766.4,193.4L764.6,193.7L762.9,194.1L761.3,194.6L759.6,195.2L758.0,195.8L756.4,196.5L754.8,197.2L753.3,198.0L751.8,198.9L750.3,199.8L748.9,200.8L747.6,201.9L746.3,203.0L745.0,204.2L743.8,205.4L742.7,206.7L741.6,208.0L740.6,209.4L739.7,210.8L738.8,212.3L738.0,213.7L737.3,215.3L736.6,216.8L736.0,218.4L735.5,220.0" stroke="#808f93" opacity="0.55"/><path d="M701.2,171.9L701.2,170.1L701.1,168.3L700.8,166.5L700.5,164.7L700.1,162.9L699.6,161.2L699.0,159.5L698.4,157.8L697.6,156.1L696.8,154.5L695.8,152.9L694.9,151.4L693.8,149.9L692.6,148.5L691.4,147.1L690.1,145.8L688.8,144.5L687.4,143.3L685.9,142.2L684.4,141.1L682.8,140.1L681.2,139.2L679.5,138.4L677.8,137.6L676.0,136.9L674.3,136.3L672.4,135.8L670.6,135.4L668.8,135.0L666.9,134.8L665.0,134.6L663.1,134.5L661.2,134.5L659.3,134.6L657.5,134.7L655.6,135.0L653.7,135.3L651.9,135.8L650.1,136.3L648.3,136.9L646.6,137.5L644.8,138.3L643.2,139.1L641.5,140.0L639.9,141.0L638.4,142.1L636.9,143.2L635.5,144.4L634.2,145.6L632.9,146.9L631.6,148.3L630.5,149.8L629.4,151.2L628.4,152.8L627.5,154.3L626.6,155.9L625.9,157.6L625.2,159.3L624.6,161.0L624.1,162.7L623.7,164.5L623.3,166.3L623.1,168.1L623.0,169.9" stroke="#808f93" opacity="0.55"/><path d="M546.7,150.5L546.7,148.6L546.5,146.6L546.3,144.7L545.9,142.8L545.4,140.9L544.9,139.1L544.2,137.2L543.4,135.5L542.6,133.7L541.6,132.0L540.6,130.3L539.4,128.7L538.2,127.2L536.9,125.7L535.5,124.3L534.1,123.0L532.5,121.7L530.9,120.5L529.3,119.4L527.6,118.3L525.8,117.4L524.0,116.5L522.1,115.8L520.2,115.1L518.3,114.5L516.3,114.0L514.3,113.7L512.3,113.4L510.3,113.2L508.3,113.1L506.2,113.1L504.2,113.2L502.2,113.5L500.2,113.8L498.2,114.2L496.3,114.7L494.3,115.3L492.5,116.0L490.6,116.8L488.8,117.7L487.1,118.6L485.4,119.7L483.7,120.8L482.1,122.0L480.6,123.3L479.2,124.7L477.8,126.1L476.6,127.6L475.4,129.2L474.3,130.8L473.2,132.5L472.3,134.2L471.5,136.0L470.7,137.8L470.1,139.6L469.5,141.5L469.1,143.4L468.8,145.3L468.5,147.2L468.4,149.1L468.4,151.1L468.5,153.0L468.7,154.9L469.0,156.8" stroke="#808f93" opacity="0.55"/><path d="M390.2,171.9L390.1,169.8L390.0,167.7L389.7,165.7L389.2,163.7L388.7,161.7L388.1,159.7L387.3,157.8L386.4,155.9L385.5,154.0L384.4,152.2L383.2,150.5L381.9,148.8L380.5,147.3L379.0,145.7L377.5,144.3L375.9,142.9L374.1,141.7L372.4,140.5L370.5,139.4L368.6,138.5L366.7,137.6L364.6,136.8L362.6,136.1L360.5,135.6L358.4,135.1L356.3,134.8L354.1,134.6L351.9,134.5L349.8,134.5L347.6,134.6L345.5,134.8L343.3,135.2L341.2,135.7L339.2,136.2L337.1,136.9L335.1,137.7L333.2,138.6L331.3,139.6L329.4,140.7L327.7,141.9L326.0,143.1L324.3,144.5L322.8,146.0L321.3,147.5L320.0,149.1L318.7,150.8L317.5,152.5L316.5,154.3L315.5,156.1L314.6,158.0L313.9,160.0L313.3,162.0L312.7,164.0L312.3,166.0L312.1,168.0L311.9,170.1L311.9,172.2L311.9,174.2L312.1,176.3L312.4,178.3L312.9,180.4L313.4,182.4L314.1,184.3L314.9,186.3" stroke="#808f93" opacity="0.55"/><path d="M273.6,230.3L273.5,228.1L273.3,225.9L273.0,223.7L272.5,221.5L271.9,219.4L271.2,217.3L270.3,215.3L269.3,213.3L268.2,211.4L267.0,209.5L265.7,207.7L264.2,206.0L262.7,204.4L261.1,202.8L259.3,201.4L257.5,200.0L255.6,198.8L253.6,197.7L251.6,196.6L249.5,195.7L247.4,195.0L245.2,194.3L242.9,193.7L240.7,193.3L238.4,193.0L236.1,192.9L233.8,192.9L231.5,193.0L229.2,193.2L226.9,193.5L224.7,194.0L222.5,194.6L220.3,195.4L218.2,196.2L216.1,197.2L214.1,198.3L212.2,199.5L210.3,200.8L208.6,202.2L206.9,203.7L205.3,205.2L203.8,206.9L202.4,208.7L201.1,210.5L200.0,212.4L198.9,214.4L198.0,216.4L197.2,218.5L196.6,220.6L196.1,222.7L195.7,224.9L195.4,227.0L195.3,229.2L195.3,231.4L195.4,233.6L195.7,235.8L196.1,238.0L196.6,240.1L197.3,242.2L198.1,244.3L199.0,246.3L200.1,248.2L201.2,250.1L202.5,252.0" stroke="#808f93" opacity="0.55"/><path d="M228.1,310.0L228.1,307.7L227.8,305.4L227.4,303.1L226.9,300.8L226.2,298.5L225.4,296.3L224.5,294.2L223.4,292.1L222.1,290.1L220.8,288.2L219.3,286.3L217.7,284.6L216.0,282.9L214.2,281.4L212.2,279.9L210.2,278.6L208.2,277.4L206.0,276.3L203.8,275.4L201.5,274.6L199.1,273.9L196.8,273.4L194.4,273.0L191.9,272.7L189.5,272.6L187.1,272.6L184.6,272.8L182.2,273.2L179.8,273.6L177.5,274.2L175.2,275.0L172.9,275.9L170.7,276.9L168.6,278.0L166.6,279.3L164.6,280.7L162.7,282.2L161.0,283.8L159.3,285.5L157.8,287.3L156.4,289.2L155.1,291.2L153.9,293.3L152.9,295.4L152.0,297.5L151.3,299.8L150.7,302.0L150.2,304.3L150.0,306.6L149.8,309.0L149.8,311.3L150.0,313.6L150.3,315.9L150.7,318.2L151.4,320.5L152.1,322.7L153.0,324.8L154.0,326.9L155.2,329.0L156.5,331.0L157.9,332.8L159.5,334.6L161.2,336.3L162.9,337.9" stroke="#808f93" opacity="0.55"/><path d="M266.0,389.7L265.9,387.3L265.7,384.8L265.3,382.4L264.7,380.0L263.9,377.7L263.0,375.4L261.9,373.1L260.7,371.0L259.4,368.9L257.8,366.9L256.2,365.0L254.4,363.2L252.6,361.5L250.6,360.0L248.5,358.6L246.3,357.3L244.0,356.1L241.6,355.1L239.2,354.3L236.7,353.6L234.2,353.0L231.7,352.6L229.1,352.4L226.5,352.4L224.0,352.5L221.4,352.7L218.9,353.1L216.4,353.7L213.9,354.5L211.5,355.3L209.2,356.4L206.9,357.6L204.7,358.9L202.7,360.3L200.7,361.9L198.8,363.6L197.1,365.4L195.5,367.4L194.0,369.4L192.7,371.5L191.5,373.7L190.5,375.9L189.6,378.2L188.9,380.6L188.3,383.0L187.9,385.4L187.7,387.9L187.7,390.3L187.8,392.8L188.1,395.2L188.6,397.7L189.2,400.0L190.0,402.4L190.9,404.7L192.0,406.9L193.3,409.0L194.7,411.1L196.2,413.1L197.9,414.9L199.7,416.7L201.6,418.4L203.6,419.9L205.8,421.3L208.0,422.5" stroke="#808f93" opacity="0.55"/><path d="M377.1,448.1L377.0,445.5L376.7,443.0L376.3,440.4L375.6,437.9L374.8,435.4L373.8,433.0L372.6,430.7L371.2,428.4L369.7,426.3L368.1,424.2L366.3,422.3L364.3,420.5L362.3,418.8L360.1,417.3L357.8,415.9L355.4,414.7L352.9,413.6L350.4,412.7L347.8,411.9L345.1,411.4L342.5,411.0L339.8,410.8L337.0,410.7L334.3,410.9L331.6,411.2L329.0,411.7L326.4,412.4L323.8,413.3L321.3,414.3L318.9,415.4L316.6,416.8L314.3,418.3L312.2,419.9L310.3,421.7L308.4,423.6L306.7,425.6L305.1,427.7L303.7,429.9L302.5,432.2L301.4,434.6L300.5,437.0L299.8,439.5L299.3,442.1L298.9,444.7L298.8,447.2L298.8,449.8L299.0,452.4L299.4,455.0L300.0,457.5L300.8,460.0L301.7,462.4L302.9,464.8L304.1,467.1L305.6,469.2L307.2,471.3L309.0,473.3L310.9,475.2L312.9,476.9L315.0,478.5L317.3,479.9L319.6,481.2L322.1,482.3L324.6,483.3L327.2,484.1" stroke="#808f93" opacity="0.55"/><path d="M531.6,469.5L531.5,466.8L531.2,464.1L530.7,461.4L530.0,458.8L529.0,456.2L527.9,453.7L526.6,451.3L525.2,448.9L523.5,446.7L521.7,444.6L519.7,442.7L517.6,440.8L515.3,439.2L513.0,437.6L510.5,436.3L507.9,435.1L505.3,434.2L502.5,433.4L499.8,432.8L496.9,432.3L494.1,432.1L491.2,432.1L488.4,432.3L485.6,432.7L482.8,433.3L480.1,434.0L477.4,435.0L474.8,436.1L472.3,437.4L469.9,438.9L467.6,440.6L465.5,442.4L463.5,444.3L461.7,446.4L460.0,448.6L458.5,450.9L457.1,453.3L456.0,455.8L455.1,458.3L454.3,461.0L453.8,463.6L453.4,466.3L453.3,469.1L453.3,471.8L453.6,474.5L454.1,477.2L454.8,479.8L455.7,482.4L456.8,484.9L458.0,487.4L459.5,489.7L461.1,491.9L462.9,494.1L464.8,496.0L466.9,497.9L469.2,499.6L471.5,501.1L474.0,502.5L476.5,503.7L479.2,504.7L481.9,505.5L484.7,506.2L487.5,506.6L490.3,506.8" stroke="#c28b68" opacity="0.8"/><path d="M688.1,448.1L688.0,445.3L687.7,442.4L687.1,439.6L686.3,436.9L685.3,434.2L684.1,431.6L682.7,429.1L681.1,426.7L679.3,424.4L677.3,422.3L675.1,420.3L672.8,418.5L670.4,416.8L667.8,415.4L665.2,414.1L662.4,413.0L659.6,412.1L656.7,411.5L653.7,411.0L650.7,410.8L647.7,410.7L644.8,410.9L641.8,411.4L638.9,412.0L636.0,412.8L633.3,413.9L630.6,415.1L628.0,416.6L625.5,418.2L623.2,420.0L621.0,421.9L619.0,424.0L617.2,426.3L615.5,428.7L614.1,431.2L612.8,433.7L611.8,436.4L610.9,439.2L610.3,441.9L610.0,444.8L609.8,447.6L609.9,450.5L610.2,453.3L610.7,456.1L611.5,458.9L612.4,461.6L613.6,464.2L615.0,466.7L616.6,469.2L618.4,471.4L620.3,473.6L622.4,475.6L624.7,477.5L627.1,479.2L629.6,480.7L632.3,482.0L635.0,483.1L637.9,484.0L640.8,484.7L643.7,485.2L646.7,485.5L649.7,485.5L652.7,485.4L655.6,485.0" stroke="#808f93" opacity="0.55"/><path d="M804.8,389.7L804.6,386.8L804.3,383.8L803.6,380.9L802.8,378.0L801.7,375.2L800.4,372.5L798.8,369.9L797.0,367.5L795.1,365.1L792.9,363.0L790.6,361.0L788.1,359.2L785.5,357.5L782.8,356.1L779.9,354.9L776.9,354.0L773.9,353.2L770.8,352.7L767.7,352.4L764.6,352.4L761.5,352.6L758.4,353.0L755.3,353.7L752.4,354.5L749.5,355.7L746.7,357.0L744.0,358.5L741.5,360.3L739.1,362.2L736.9,364.3L734.8,366.6L733.0,369.0L731.4,371.6L730.0,374.2L728.8,377.0L727.8,379.8L727.1,382.7L726.7,385.7L726.4,388.7L726.5,391.6L726.8,394.6L727.3,397.5L728.1,400.4L729.1,403.3L730.3,406.0L731.8,408.6L733.5,411.1L735.4,413.5L737.4,415.8L739.7,417.8L742.1,419.7L744.7,421.4L747.4,422.9L750.2,424.2L753.1,425.2L756.1,426.0L759.2,426.7L762.3,427.0L765.4,427.1L768.6,427.0L771.7,426.7L774.7,426.1L777.7,425.3L780.7,424.3" stroke="#808f93" opacity="0.55"/><path d="M852.2,310.0L852.1,308.4L852.0,306.8L851.8,305.2L851.6,303.6L851.3,302.0L850.9,300.4L850.5,298.8L849.9,297.3L849.4,295.8L848.7,294.3L848.0,292.8L847.2,291.4L846.4,290.0L845.5,288.6L844.5,287.2L843.5,285.9L842.5,284.7L841.3,283.5L840.2,282.3L838.9,281.2L837.7,280.1L836.4,279.1L835.0,278.1L833.6,277.2L832.2,276.3L830.7,275.5L829.2,274.8L827.7,274.1L826.1,273.5L824.5,272.9L822.9,272.4L821.3,272.0L819.6,271.6L817.9,271.3L816.3,271.1L814.6,270.9L812.9,270.8L811.2,270.7L809.5,270.8L807.8,270.9L806.1,271.0L804.4,271.3L802.8,271.5L801.1,271.9L799.5,272.3L797.9,272.8L796.3,273.4L794.7,274.0L793.2,274.6L791.7,275.4L790.2,276.2L788.7,277.0L787.3,277.9L786.0,278.9L784.6,279.9L783.4,281.0L782.1,282.1L781.0,283.2L779.8,284.4L778.8,285.7L777.7,287.0L776.8,288.3L775.9,289.7L775.0,291.1" stroke="#808f93" opacity="0.55"/><path d="M814.3,230.3L814.2,228.5L814.1,226.7L813.9,225.0L813.6,223.3L813.2,221.5L812.8,219.8L812.3,218.2L811.7,216.5L811.0,214.9L810.2,213.3L809.4,211.7L808.5,210.2L807.5,208.7L806.5,207.2L805.3,205.8L804.2,204.5L802.9,203.2L801.6,201.9L800.3,200.8L798.9,199.6L797.4,198.6L795.9,197.6L794.3,196.6L792.8,195.7L791.1,194.9L789.4,194.2L787.7,193.5L786.0,193.0L784.2,192.5L782.5,192.0L780.7,191.7L778.8,191.4L777.0,191.2L775.2,191.0L773.4,191.0L771.5,191.0L769.7,191.1L767.8,191.3L766.0,191.6L764.2,191.9L762.4,192.3L760.7,192.8L758.9,193.4L757.2,194.1L755.5,194.8L753.9,195.6L752.3,196.4L750.7,197.3L749.2,198.3L747.7,199.4L746.3,200.5L745.0,201.7L743.6,202.9L742.4,204.2L741.2,205.5L740.1,206.9L739.0,208.4L738.0,209.8L737.1,211.4L736.3,212.9L735.5,214.5L734.8,216.1L734.2,217.8L733.6,219.5" stroke="#808f93" opacity="0.55"/><path d="M703.2,171.9L703.1,170.0L703.0,168.1L702.7,166.2L702.4,164.3L702.0,162.5L701.5,160.7L700.9,158.9L700.2,157.1L699.4,155.4L698.5,153.7L697.5,152.0L696.5,150.4L695.4,148.8L694.2,147.3L692.9,145.9L691.5,144.5L690.1,143.2L688.6,141.9L687.1,140.7L685.5,139.6L683.8,138.6L682.1,137.6L680.4,136.7L678.6,135.9L676.7,135.2L674.9,134.6L673.0,134.0L671.0,133.6L669.1,133.2L667.1,132.9L665.2,132.7L663.2,132.6L661.2,132.6L659.2,132.7L657.2,132.9L655.3,133.2L653.3,133.5L651.4,134.0L649.5,134.5L647.6,135.1L645.8,135.8L644.0,136.6L642.2,137.5L640.5,138.4L638.8,139.5L637.2,140.6L635.7,141.8L634.2,143.0L632.8,144.3L631.4,145.7L630.1,147.2L628.9,148.7L627.8,150.2L626.7,151.8L625.8,153.5L624.9,155.2L624.1,156.9L623.4,158.7L622.7,160.5L622.2,162.3L621.8,164.1L621.4,166.0L621.2,167.9L621.0,169.8" stroke="#808f93" opacity="0.55"/><path d="M548.7,150.5L548.6,148.5L548.5,146.4L548.2,144.4L547.8,142.4L547.3,140.5L546.7,138.5L546.0,136.6L545.2,134.7L544.3,132.9L543.3,131.1L542.2,129.3L541.0,127.7L539.7,126.0L538.3,124.5L536.9,123.0L535.4,121.6L533.8,120.2L532.1,119.0L530.3,117.8L528.5,116.7L526.7,115.8L524.8,114.9L522.8,114.1L520.8,113.3L518.8,112.7L516.7,112.2L514.7,111.8L512.6,111.5L510.4,111.3L508.3,111.3L506.2,111.3L504.1,111.4L501.9,111.6L499.8,111.9L497.8,112.4L495.7,112.9L493.7,113.5L491.7,114.3L489.8,115.1L487.9,116.0L486.0,117.1L484.3,118.2L482.5,119.4L480.9,120.6L479.3,122.0L477.8,123.4L476.4,124.9L475.0,126.5L473.8,128.1L472.6,129.8L471.5,131.6L470.5,133.4L469.7,135.3L468.9,137.2L468.2,139.1L467.7,141.0L467.2,143.0L466.9,145.0L466.6,147.0L466.5,149.1L466.5,151.1L466.5,153.1L466.7,155.2L467.0,157.2" stroke="#808f93" opacity="0.55"/><path d="M392.1,171.9L392.1,169.7L391.9,167.5L391.6,165.4L391.1,163.3L390.6,161.2L389.9,159.1L389.1,157.1L388.2,155.1L387.2,153.1L386.0,151.3L384.8,149.4L383.4,147.7L382.0,146.0L380.4,144.4L378.8,142.9L377.1,141.5L375.3,140.2L373.4,138.9L371.5,137.8L369.5,136.8L367.4,135.9L365.3,135.1L363.2,134.4L361.0,133.8L358.8,133.3L356.5,133.0L354.3,132.7L352.0,132.6L349.7,132.6L347.5,132.8L345.2,133.0L343.0,133.4L340.7,133.9L338.6,134.5L336.4,135.2L334.3,136.0L332.3,136.9L330.3,138.0L328.3,139.1L326.5,140.4L324.7,141.7L323.0,143.1L321.4,144.7L319.9,146.3L318.4,148.0L317.1,149.7L315.9,151.5L314.7,153.4L313.7,155.4L312.8,157.4L312.0,159.4L311.4,161.5L310.8,163.6L310.4,165.7L310.1,167.9L310.0,170.0L309.9,172.2L310.0,174.4L310.2,176.5L310.5,178.7L311.0,180.8L311.6,182.9L312.3,184.9L313.1,187.0" stroke="#808f93" opacity="0.55"/><path d="M275.5,230.3L275.5,227.9L275.2,225.6L274.9,223.4L274.4,221.1L273.8,218.9L273.0,216.7L272.1,214.6L271.1,212.5L269.9,210.4L268.6,208.5L267.2,206.6L265.7,204.8L264.1,203.1L262.4,201.5L260.6,200.0L258.7,198.5L256.7,197.2L254.6,196.0L252.5,195.0L250.3,194.0L248.0,193.2L245.7,192.5L243.4,191.9L241.0,191.5L238.6,191.2L236.2,191.0L233.8,191.0L231.3,191.1L228.9,191.3L226.6,191.7L224.2,192.2L221.9,192.9L219.6,193.6L217.4,194.5L215.2,195.5L213.1,196.7L211.1,197.9L209.1,199.3L207.3,200.8L205.5,202.3L203.8,204.0L202.3,205.8L200.8,207.6L199.5,209.5L198.3,211.5L197.2,213.6L196.2,215.7L195.4,217.9L194.7,220.1L194.1,222.3L193.7,224.6L193.5,226.9L193.3,229.2L193.3,231.5L193.5,233.8L193.8,236.1L194.2,238.4L194.8,240.6L195.5,242.8L196.3,245.0L197.3,247.1L198.4,249.1L199.6,251.1L200.9,253.0" stroke="#808f93" opacity="0.55"/><path d="M230.1,310.0L230.0,307.6L229.8,305.1L229.4,302.7L228.8,300.3L228.1,298.0L227.2,295.7L226.2,293.4L225.1,291.2L223.8,289.1L222.4,287.1L220.8,285.2L219.1,283.3L217.3,281.6L215.4,279.9L213.4,278.4L211.3,277.0L209.1,275.8L206.8,274.7L204.5,273.7L202.1,272.8L199.7,272.1L197.2,271.5L194.6,271.1L192.1,270.9L189.5,270.7L187.0,270.8L184.4,271.0L181.9,271.3L179.4,271.8L176.9,272.5L174.5,273.3L172.1,274.2L169.8,275.3L167.6,276.5L165.5,277.8L163.4,279.3L161.4,280.8L159.6,282.5L157.9,284.3L156.3,286.2L154.8,288.2L153.4,290.3L152.2,292.4L151.1,294.7L150.2,296.9L149.4,299.3L148.8,301.6L148.3,304.0L148.0,306.5L147.9,308.9L147.9,311.3L148.0,313.8L148.4,316.2L148.8,318.6L149.5,321.0L150.3,323.3L151.2,325.6L152.3,327.8L153.5,329.9L154.9,332.0L156.4,334.0L158.0,335.9L159.8,337.6L161.6,339.3" stroke="#c28b68" opacity="0.8"/><path d="M268.0,389.7L267.9,387.2L267.6,384.6L267.2,382.1L266.5,379.5L265.8,377.1L264.8,374.7L263.7,372.3L262.4,370.0L261.0,367.8L259.4,365.8L257.7,363.8L255.8,361.9L253.8,360.1L251.7,358.5L249.5,357.0L247.2,355.7L244.8,354.4L242.4,353.4L239.8,352.5L237.2,351.8L234.6,351.2L231.9,350.8L229.2,350.6L226.5,350.5L223.8,350.6L221.1,350.9L218.5,351.3L215.8,351.9L213.3,352.7L210.7,353.6L208.3,354.7L205.9,356.0L203.6,357.3L201.5,358.9L199.4,360.5L197.4,362.3L195.6,364.2L193.9,366.2L192.4,368.4L191.0,370.6L189.7,372.9L188.7,375.2L187.7,377.7L187.0,380.1L186.4,382.7L186.0,385.2L185.8,387.8L185.7,390.4L185.9,392.9L186.2,395.5L186.7,398.1L187.3,400.6L188.2,403.0L189.2,405.4L190.3,407.7L191.6,410.0L193.1,412.2L194.7,414.2L196.5,416.2L198.4,418.0L200.4,419.8L202.5,421.4L204.7,422.8L207.0,424.2" stroke="#808f93" opacity="0.55"/><path d="M379.0,448.1L378.9,445.4L378.7,442.7L378.2,440.0L377.5,437.4L376.6,434.8L375.5,432.3L374.3,429.8L372.9,427.5L371.3,425.2L369.6,423.1L367.7,421.0L365.6,419.1L363.5,417.4L361.2,415.7L358.8,414.3L356.3,413.0L353.7,411.9L351.0,410.9L348.3,410.1L345.5,409.5L342.7,409.1L339.8,408.9L337.0,408.9L334.2,409.0L331.3,409.4L328.5,409.9L325.8,410.6L323.1,411.5L320.5,412.6L317.9,413.8L315.5,415.2L313.2,416.8L311.0,418.5L308.9,420.4L306.9,422.3L305.1,424.5L303.5,426.7L302.0,429.0L300.7,431.4L299.6,433.9L298.7,436.5L297.9,439.1L297.4,441.8L297.0,444.5L296.8,447.2L296.9,449.9L297.1,452.6L297.5,455.3L298.1,458.0L298.9,460.6L299.9,463.1L301.1,465.6L302.5,468.0L304.0,470.3L305.7,472.5L307.5,474.6L309.5,476.5L311.6,478.3L313.9,480.0L316.3,481.5L318.7,482.8L321.3,484.0L323.9,485.0L326.6,485.9" stroke="#808f93" opacity="0.55"/><path d="M533.6,469.5L533.4,466.6L533.1,463.8L532.6,461.0L531.8,458.2L530.9,455.5L529.7,452.9L528.3,450.4L526.8,447.9L525.0,445.6L523.1,443.4L521.1,441.3L518.8,439.4L516.5,437.7L514.0,436.1L511.4,434.7L508.7,433.4L505.9,432.4L503.0,431.6L500.1,430.9L497.2,430.5L494.2,430.3L491.2,430.3L488.2,430.5L485.2,430.9L482.3,431.5L479.4,432.3L476.6,433.3L473.9,434.5L471.3,435.8L468.8,437.4L466.4,439.1L464.2,441.0L462.1,443.0L460.1,445.2L458.4,447.5L456.8,450.0L455.4,452.5L454.2,455.1L453.2,457.8L452.4,460.6L451.8,463.4L451.5,466.2L451.3,469.0L451.4,471.9L451.7,474.7L452.2,477.6L452.9,480.3L453.9,483.0L455.0,485.7L456.3,488.2L457.8,490.7L459.5,493.1L461.4,495.3L463.5,497.4L465.7,499.3L468.0,501.1L470.5,502.7L473.1,504.1L475.8,505.4L478.5,506.4L481.4,507.3L484.3,508.0L487.2,508.4L490.2,508.7" stroke="#808f93" opacity="0.55"/><path d="M690.1,448.1L690.0,445.1L689.6,442.2L689.0,439.2L688.2,436.3L687.1,433.5L685.9,430.8L684.4,428.1L682.7,425.6L680.8,423.2L678.7,421.0L676.4,418.9L674.0,417.0L671.5,415.3L668.8,413.7L666.0,412.4L663.1,411.3L660.1,410.3L657.0,409.6L653.9,409.2L650.8,408.9L647.7,408.9L644.6,409.1L641.5,409.5L638.4,410.2L635.4,411.1L632.5,412.2L629.7,413.5L626.9,415.0L624.4,416.7L621.9,418.6L619.6,420.6L617.5,422.8L615.6,425.2L613.9,427.7L612.3,430.3L611.0,433.0L609.9,435.8L609.1,438.7L608.4,441.6L608.0,444.6L607.9,447.6L607.9,450.6L608.3,453.6L608.8,456.5L609.6,459.4L610.6,462.3L611.9,465.0L613.3,467.7L615.0,470.2L616.8,472.6L618.9,474.9L621.1,477.0L623.5,478.9L626.0,480.7L628.7,482.3L631.5,483.7L634.4,484.8L637.3,485.8L640.4,486.5L643.5,487.0L646.6,487.3L649.7,487.4L652.8,487.2L656.0,486.8" stroke="#808f93" opacity="0.55"/><path d="M806.7,389.7L806.6,386.6L806.2,383.5L805.5,380.4L804.6,377.4L803.5,374.5L802.1,371.7L800.5,368.9L798.6,366.4L796.5,363.9L794.3,361.6L791.9,359.5L789.2,357.6L786.5,355.9L783.6,354.5L780.6,353.2L777.5,352.2L774.3,351.4L771.1,350.8L767.8,350.6L764.6,350.5L761.3,350.7L758.0,351.2L754.8,351.9L751.7,352.8L748.7,354.0L745.7,355.4L742.9,357.0L740.3,358.8L737.8,360.9L735.4,363.1L733.3,365.4L731.4,368.0L729.7,370.7L728.2,373.4L726.9,376.3L726.0,379.3L725.2,382.4L724.7,385.5L724.5,388.6L724.5,391.7L724.8,394.9L725.4,397.9L726.2,401.0L727.3,403.9L728.6,406.8L730.1,409.6L731.9,412.2L733.9,414.7L736.0,417.0L738.4,419.2L741.0,421.2L743.7,423.0L746.5,424.5L749.5,425.9L752.5,427.0L755.7,427.8L758.9,428.5L762.1,428.9L765.4,429.0L768.7,428.9L772.0,428.5L775.2,427.9L778.3,427.1L781.4,426.0" stroke="#808f93" opacity="0.55"/><path d="M854.1,310.0L854.1,308.3L853.9,306.6L853.8,304.9L853.5,303.2L853.2,301.6L852.8,299.9L852.3,298.3L851.8,296.7L851.2,295.1L850.5,293.5L849.7,292.0L848.9,290.5L848.1,289.0L847.1,287.6L846.1,286.2L845.1,284.8L843.9,283.5L842.8,282.2L841.5,281.0L840.3,279.8L838.9,278.7L837.6,277.6L836.1,276.6L834.7,275.6L833.2,274.7L831.6,273.9L830.1,273.1L828.4,272.4L826.8,271.7L825.1,271.2L823.5,270.6L821.7,270.2L820.0,269.8L818.3,269.5L816.5,269.2L814.8,269.0L813.0,268.9L811.2,268.9L809.4,268.9L807.7,269.0L805.9,269.2L804.1,269.4L802.4,269.7L800.7,270.1L798.9,270.5L797.3,271.1L795.6,271.6L793.9,272.3L792.3,273.0L790.7,273.7L789.2,274.6L787.7,275.5L786.2,276.4L784.8,277.4L783.4,278.5L782.1,279.6L780.8,280.8L779.5,282.0L778.4,283.2L777.2,284.5L776.2,285.9L775.1,287.3L774.2,288.7L773.3,290.2" stroke="#808f93" opacity="0.55"/><path d="M816.2,230.3L816.2,228.4L816.0,226.6L815.8,224.7L815.5,222.9L815.1,221.1L814.7,219.3L814.1,217.6L813.5,215.8L812.8,214.1L812.0,212.5L811.1,210.8L810.1,209.2L809.1,207.7L808.0,206.2L806.9,204.7L805.6,203.3L804.3,201.9L803.0,200.6L801.6,199.4L800.1,198.2L798.6,197.1L797.0,196.0L795.4,195.0L793.7,194.1L792.0,193.3L790.2,192.5L788.4,191.8L786.6,191.2L784.8,190.7L782.9,190.2L781.0,189.8L779.1,189.5L777.2,189.3L775.3,189.2L773.4,189.1L771.4,189.2L769.5,189.3L767.6,189.5L765.7,189.8L763.8,190.1L761.9,190.6L760.1,191.1L758.3,191.7L756.5,192.3L754.7,193.1L753.0,193.9L751.3,194.8L749.7,195.8L748.1,196.8L746.5,197.9L745.1,199.1L743.6,200.3L742.2,201.6L740.9,203.0L739.7,204.4L738.5,205.8L737.4,207.3L736.4,208.9L735.4,210.5L734.5,212.1L733.7,213.8L733.0,215.5L732.3,217.2L731.7,219.0" stroke="#808f93" opacity="0.55"/><path d="M705.1,171.9L705.1,169.9L704.9,167.9L704.7,165.9L704.3,164.0L703.9,162.0L703.3,160.1L702.7,158.2L702.0,156.4L701.1,154.6L700.2,152.8L699.2,151.1L698.1,149.4L696.9,147.7L695.7,146.2L694.3,144.6L692.9,143.2L691.4,141.8L689.9,140.5L688.3,139.2L686.6,138.1L684.9,137.0L683.1,136.0L681.2,135.1L679.3,134.2L677.4,133.5L675.5,132.8L673.5,132.2L671.5,131.7L669.4,131.4L667.4,131.1L665.3,130.9L663.2,130.8L661.1,130.8L659.1,130.9L657.0,131.0L655.0,131.3L652.9,131.7L650.9,132.2L648.9,132.7L646.9,133.4L645.0,134.1L643.1,134.9L641.3,135.9L639.5,136.9L637.7,137.9L636.1,139.1L634.4,140.3L632.9,141.6L631.4,143.0L630.0,144.5L628.6,146.0L627.3,147.6L626.2,149.2L625.1,150.9L624.0,152.6L623.1,154.4L622.3,156.2L621.5,158.0L620.9,159.9L620.3,161.8L619.9,163.8L619.5,165.7L619.2,167.7L619.1,169.7" stroke="#808f93" opacity="0.55"/><path d="M550.6,150.5L550.6,148.4L550.4,146.3L550.1,144.1L549.7,142.1L549.2,140.0L548.6,137.9L547.8,135.9L547.0,134.0L546.0,132.0L545.0,130.2L543.8,128.3L542.6,126.6L541.2,124.9L539.8,123.3L538.3,121.7L536.7,120.2L535.0,118.8L533.2,117.5L531.4,116.3L529.5,115.1L527.6,114.1L525.6,113.2L523.6,112.3L521.5,111.6L519.3,111.0L517.2,110.4L515.0,110.0L512.8,109.7L510.6,109.5L508.3,109.4L506.1,109.4L503.9,109.5L501.7,109.8L499.5,110.1L497.3,110.6L495.2,111.1L493.0,111.8L491.0,112.6L488.9,113.4L486.9,114.4L485.0,115.5L483.1,116.6L481.3,117.9L479.6,119.2L478.0,120.6L476.4,122.1L474.9,123.7L473.5,125.4L472.2,127.1L470.9,128.9L469.8,130.7L468.8,132.6L467.9,134.5L467.1,136.5L466.4,138.5L465.8,140.6L465.3,142.7L464.9,144.8L464.7,146.9L464.5,149.0L464.5,151.1L464.6,153.3L464.8,155.4L465.1,157.5" stroke="#c28b68" opacity="0.8"/><path d="M394.1,171.9L394.0,169.6L393.8,167.3L393.5,165.1L393.0,162.9L392.5,160.7L391.7,158.5L390.9,156.4L389.9,154.3L388.9,152.3L387.7,150.3L386.4,148.4L385.0,146.6L383.4,144.8L381.8,143.1L380.1,141.6L378.3,140.1L376.4,138.7L374.5,137.4L372.5,136.2L370.4,135.1L368.2,134.2L366.0,133.3L363.7,132.6L361.5,132.0L359.1,131.5L356.8,131.1L354.4,130.9L352.0,130.8L349.7,130.8L347.3,130.9L344.9,131.2L342.6,131.6L340.3,132.1L338.0,132.7L335.7,133.4L333.5,134.3L331.4,135.3L329.3,136.4L327.3,137.6L325.3,138.9L323.5,140.3L321.7,141.8L320.0,143.4L318.4,145.1L316.9,146.8L315.5,148.7L314.2,150.6L313.0,152.5L312.0,154.6L311.0,156.7L310.2,158.8L309.5,161.0L308.9,163.2L308.5,165.4L308.2,167.7L308.0,169.9L308.0,172.2L308.1,174.5L308.3,176.7L308.6,179.0L309.1,181.2L309.7,183.4L310.4,185.6L311.3,187.7" stroke="#808f93" opacity="0.55"/><path d="M277.5,230.3L277.4,227.8L277.2,225.4L276.8,223.0L276.3,220.7L275.6,218.3L274.8,216.1L273.9,213.8L272.8,211.6L271.6,209.5L270.2,207.5L268.8,205.5L267.2,203.6L265.5,201.8L263.7,200.1L261.8,198.5L259.8,197.0L257.7,195.7L255.5,194.4L253.3,193.3L251.0,192.3L248.6,191.4L246.2,190.7L243.8,190.1L241.3,189.7L238.8,189.3L236.3,189.2L233.7,189.1L231.2,189.3L228.7,189.5L226.2,189.9L223.7,190.4L221.3,191.1L218.9,191.9L216.6,192.8L214.3,193.9L212.1,195.1L210.0,196.4L207.9,197.8L206.0,199.4L204.1,201.0L202.4,202.8L200.8,204.6L199.2,206.5L197.8,208.6L196.6,210.6L195.4,212.8L194.4,215.0L193.6,217.3L192.8,219.6L192.2,221.9L191.8,224.3L191.5,226.7L191.4,229.1L191.4,231.6L191.5,234.0L191.8,236.4L192.3,238.7L192.9,241.1L193.6,243.4L194.5,245.7L195.5,247.9L196.7,250.0L197.9,252.1L199.4,254.1" stroke="#808f93" opacity="0.55"/><path d="M232.0,310.0L231.9,307.4L231.7,304.9L231.3,302.4L230.7,299.9L229.9,297.4L229.0,295.0L228.0,292.6L226.8,290.4L225.4,288.1L223.9,286.0L222.3,284.0L220.5,282.1L218.7,280.2L216.7,278.5L214.6,276.9L212.4,275.5L210.1,274.2L207.7,273.0L205.2,271.9L202.7,271.0L200.2,270.3L197.5,269.7L194.9,269.3L192.2,269.0L189.6,268.9L186.9,268.9L184.2,269.1L181.6,269.5L178.9,270.0L176.3,270.7L173.8,271.5L171.3,272.5L168.9,273.6L166.6,274.9L164.3,276.3L162.2,277.8L160.1,279.5L158.2,281.2L156.4,283.1L154.7,285.1L153.1,287.2L151.7,289.4L150.5,291.6L149.3,293.9L148.4,296.3L147.5,298.8L146.9,301.2L146.4,303.8L146.1,306.3L145.9,308.8L145.9,311.4L146.1,314.0L146.4,316.5L147.0,319.0L147.6,321.5L148.4,323.9L149.4,326.3L150.6,328.6L151.9,330.9L153.3,333.0L154.9,335.1L156.6,337.1L158.4,339.0L160.3,340.7" stroke="#808f93" opacity="0.55"/><path d="M269.9,389.7L269.8,387.0L269.5,384.4L269.1,381.7L268.4,379.1L267.6,376.5L266.6,373.9L265.4,371.5L264.1,369.1L262.6,366.8L260.9,364.6L259.1,362.5L257.2,360.6L255.1,358.7L252.9,357.0L250.6,355.5L248.2,354.0L245.7,352.8L243.1,351.7L240.4,350.7L237.7,350.0L235.0,349.4L232.2,349.0L229.3,348.7L226.5,348.6L223.7,348.7L220.9,349.0L218.1,349.5L215.3,350.1L212.6,350.9L210.0,351.9L207.4,353.1L204.9,354.4L202.5,355.8L200.3,357.4L198.1,359.2L196.0,361.0L194.1,363.0L192.4,365.1L190.7,367.3L189.3,369.7L188.0,372.1L186.9,374.5L185.9,377.1L185.1,379.7L184.5,382.3L184.1,385.0L183.8,387.7L183.8,390.4L183.9,393.1L184.3,395.8L184.8,398.4L185.5,401.1L186.3,403.6L187.4,406.2L188.6,408.6L190.0,411.0L191.5,413.2L193.2,415.4L195.0,417.4L197.0,419.4L199.1,421.2L201.3,422.9L203.7,424.4L206.1,425.8" stroke="#808f93" opacity="0.55"/></svg>